<?xml version="1.0" encoding="utf-8"?>
<svg xmlns="http://www.w3.org/2000/svg" fill="none" height="1080" viewBox="0 0 1922 1080" width="1922">
<path d="M1921.01 0H1.01074V1080H1921.01V0Z" fill="#F4D3DB"/>
<path d="M1921.01 1018.05V1020.47V1022.99C1886.67 999.45 1849.9 977.22 1812.59 960.25L1798.52 954.1L1795.01 952.56L1791.44 951.16L1784.31 948.37L1777.19 945.57C1776.01 945.08 1774.81 944.65 1773.61 944.24L1770 942.98C1765.18 941.31 1760.4 939.57 1755.57 937.96C1736.22 931.67 1716.57 926.54 1696.76 922.44L1689.31 921C1686.83 920.54 1684.36 919.99 1681.86 919.64L1666.9 917.23L1651.87 915.34C1646.86 914.79 1641.82 914.4 1636.81 913.89C1616.7 912.21 1596.53 911.62 1576.45 912.3C1571.43 912.51 1566.42 912.65 1561.4 913.03L1553.89 913.54L1546.38 914.19L1542.63 914.51L1538.87 914.92L1531.38 915.74L1523.88 916.71C1521.38 917.03 1518.88 917.33 1516.39 917.73L1508.89 918.84C1506.39 919.21 1503.9 919.66 1501.4 920.06C1496.41 920.86 1491.4 921.79 1486.4 922.68C1483.5 923.23 1480.6 923.78 1477.69 924.35C1470.57 925.72 1463.44 927.15 1456.27 928.66C1440.63 931.9 1424.85 935.35 1408.85 938.54C1404.22 939.47 1399.57 940.37 1394.9 941.24C1384.52 943.22 1374 944.96 1363.45 946.55L1355.49 947.65L1351.51 948.19L1347.52 948.65L1339.52 949.57L1331.49 950.34C1310.07 952.42 1288.41 952.95 1266.86 952.24C1264.17 952.13 1261.47 952.11 1258.79 951.92L1250.72 951.43L1246.69 951.18C1245.35 951.09 1244.01 950.95 1242.67 950.84L1234.63 950.12C1231.95 949.91 1229.28 949.59 1226.6 949.28L1218.59 948.35C1215.92 948.01 1213.26 947.6 1210.59 947.23C1207.93 946.83 1205.26 946.52 1202.6 946.05C1197.29 945.13 1191.97 944.33 1186.69 943.23L1178.75 941.66L1170.86 939.89L1166.91 939.01L1162.98 938.02L1155.14 936.04L1147.34 933.85L1143.45 932.74L1139.58 931.54C1129.24 928.45 1119.07 924.8 1109.04 920.87C1098.99 916.99 1089.18 912.54 1079.5 907.9C1060.15 898.6 1041.68 887.8 1023.87 876.4C1006.05 865.02 988.93 852.93 971.83 841.19C963.27 835.34 954.71 829.59 946.05 824.06C941.71 821.3 937.38 818.57 932.95 815.99L926.32 812.09C924.09 810.82 921.84 809.6 919.59 808.35L912.85 804.62L911.82 804.09L905.98 801.1L899.12 797.58L892.15 794.25L885.17 790.94L878.11 787.8L875.88 786.81L871.03 784.66C868.68 783.6 866.26 782.7 863.88 781.71C844.81 773.81 825.31 766.85 805.52 760.83L798.11 758.51L790.65 756.38C785.66 755 780.71 753.52 775.69 752.22C765.66 749.68 755.64 747.05 745.51 744.9C740.45 743.79 735.41 742.6 730.33 741.61L715.08 738.64C710 737.63 704.88 736.81 699.77 735.95C694.67 735.09 689.56 734.21 684.45 733.41C674.18 731.98 663.95 730.39 653.66 729.17L638.23 727.36L630.51 726.48L622.78 725.73C581.56 721.53 540.21 719.14 498.91 716.78C457.6 714.57 416.3 712.32 374.92 710.51C364.58 709.94 354.23 709.67 343.88 709.24C333.53 708.84 323.18 708.39 312.82 708.12L281.75 707.1L266.2 706.75L250.65 706.3C209.17 705.34 167.65 704.48 126.07 703.85C115.67 703.67 105.27 703.42 94.8704 703.29L79.2604 703.06L63.6504 702.74L32.4004 702.11C21.9804 701.89 11.4504 701.61 1.0104 701.19V699.39C1.0104 699.39 0.980404 697.58 1.0104 697.58C42.3804 691.92 83.8904 687.68 125.5 684.57C167.14 681.31 208.87 679.36 250.65 678.27C292.43 677.14 334.26 677.31 376.09 678.44L391.78 678.96C397.01 679.15 402.24 679.26 407.46 679.55C417.92 680.07 428.37 680.64 438.82 681.27C449.27 681.96 459.71 682.85 470.14 683.7C480.58 684.53 491 685.78 501.41 686.85C543.08 691.44 584.52 698.18 625.68 706.08L633.39 707.55L641.09 709.14L656.48 712.29C661.62 713.29 666.72 714.52 671.84 715.6L687.19 718.92C692.28 720.14 697.38 721.29 702.48 722.46C707.58 723.63 712.69 724.78 717.76 726.07L733.01 729.77C735.56 730.35 738.09 731.02 740.62 731.68L748.22 733.63C758.37 736.15 768.44 738.99 778.55 741.68L793.64 745.99L801.19 748.13L808.7 750.42C818.74 753.4 828.68 756.7 838.66 759.91C848.56 763.35 858.49 766.71 868.31 770.43C873.25 772.2 878.12 774.16 883.02 776.07L890.35 778.95L897.63 782L904.92 785.03L907.41 786.14L912.13 788.24L919.36 791.45L926.51 794.83C928.9 795.96 931.3 797.06 933.67 798.22L940.75 801.79C944.21 803.5 947.65 805.27 951.06 807.08C952.32 807.74 953.58 808.41 954.83 809.08C964.13 814.08 973.27 819.27 982.32 824.51C1000.45 834.95 1018.33 845.41 1036.38 855.16C1045.4 860.04 1054.5 864.66 1063.66 869.06C1072.8 873.49 1082.05 877.63 1091.37 881.48C1128.63 896.94 1167.54 907.37 1207.43 912.37C1209.91 912.73 1212.42 912.93 1214.92 913.23C1217.42 913.49 1219.91 913.79 1222.41 914.02L1229.93 914.65C1232.44 914.86 1234.94 915.08 1237.46 915.19L1244.99 915.61C1246.24 915.68 1247.5 915.77 1248.75 915.81L1252.52 915.92L1260.05 916.14C1262.55 916.23 1265.06 916.17 1267.57 916.2C1287.64 916.3 1307.66 915.13 1327.64 912.83C1332.1 912.36 1336.56 911.78 1341.02 911.15C1346.55 910.38 1352.08 909.52 1357.61 908.67C1362.61 907.8 1367.6 907.02 1372.61 906.07L1380.13 904.71L1387.66 903.26C1395.81 901.65 1404 900.03 1412.22 898.33C1414.13 897.94 1416.04 897.54 1417.96 897.14C1428.12 895.08 1438.35 892.93 1448.67 890.94C1469.3 886.89 1490.32 883.29 1511.63 880.84C1532.92 878.33 1554.51 877.16 1576.05 877.31C1597.6 877.38 1619.07 879.12 1640.34 881.95C1661.61 884.85 1682.7 889.05 1703.34 894.77C1724 900.41 1744.25 907.37 1763.95 915.51C1783.56 923.88 1802.67 933.23 1821.05 943.79C1823.39 945.03 1825.62 946.47 1827.88 947.84L1834.66 951.97L1841.42 956.11L1843.1 957.15L1844.75 958.26L1848.03 960.48L1861.15 969.33C1863.36 970.77 1865.42 972.42 1867.55 973.97L1873.9 978.67C1882.45 984.8 1890.51 991.58 1898.63 998.22C1902.75 1001.45 1906.57 1005.08 1910.49 1008.55C1914.01 1011.71 1917.53 1014.87 1921.01 1018.05Z" fill="#FFF0F4"/>
<path d="M1879.42 1080H1849.22C1826.1 1074.03 1803.05 1067.78 1780.04 1061.36C1739.07 1049.87 1698.29 1037.72 1657.69 1024.97C1617.09 1012.22 1576.64 999.01 1536.44 985L1521.35 979.8C1516.32 978.06 1511.28 976.37 1506.28 974.55L1476.21 963.75L1461.19 958.32C1456.19 956.51 1451.22 954.59 1446.22 952.73L1416.32 941.44C1413.83 940.48 1411.34 939.51 1408.85 938.54C1386.13 929.71 1363.51 920.57 1341.02 911.15C1326.65 905.14 1312.33 899 1298.08 892.76C1278.55 884.32 1259.21 875.59 1239.94 867.45L1232.71 864.4C1230.31 863.38 1227.9 862.36 1225.5 861.43C1220.69 859.53 1215.89 857.58 1211.07 855.72L1196.59 850.46C1191.74 848.82 1186.85 847.29 1181.98 845.7C1162.4 839.66 1142.25 834.91 1121.8 830.58C1116.91 829.52 1111.74 828.62 1106.62 827.7C1101.49 826.77 1096.33 825.88 1091.17 825L1075.63 822.51L1067.84 821.29L1060.05 820.13C1023.93 814.84 987.571 810.31 951.061 807.08C945.521 806.58 939.971 806.12 934.411 805.69C926.891 805.1 919.361 804.56 911.821 804.09C898.271 803.25 884.711 802.6 871.131 802.14L855.291 801.77C850.001 801.62 844.721 801.61 839.431 801.59H823.571C818.291 801.67 813.001 801.78 807.721 801.91C765.451 802.92 723.191 806.22 681.411 812.62C639.631 818.95 598.361 828.38 558.141 840.71L550.591 842.97L543.111 845.45L528.161 850.41C523.161 851.98 518.281 853.91 513.351 855.69L498.601 861.1C488.861 864.94 479.181 868.86 469.491 872.74C459.851 876.76 450.301 880.97 440.701 885.24C421.551 893.82 402.221 902.79 382.271 910.97C362.351 919.2 341.951 926.58 321.351 933.06C300.741 939.51 280.001 945.32 259.091 950.29C238.211 955.39 217.201 959.87 196.081 963.7L180.231 966.49C174.951 967.45 169.631 968.17 164.341 969C153.751 970.68 143.111 972.04 132.491 973.44L116.521 975.25L108.541 976.14L100.551 976.89C95.2107 977.35 89.8907 977.9 84.5507 978.3L68.5507 979.48C46.0407 980.9 23.5207 981.75 1.01074 981.87V969.59C1.88074 969.48 2.76074 969.36 3.63074 969.25C24.6307 966.53 45.5607 963.59 66.4107 960.3L82.0307 957.77C87.2407 956.95 92.4207 955.97 97.6207 955.08L105.401 953.74L113.171 952.3L128.691 949.39C139.011 947.27 149.351 945.38 159.621 943.08L167.321 941.42C169.891 940.87 172.471 940.35 175.021 939.75L190.391 936.25C195.521 935.13 200.601 933.79 205.701 932.55C210.791 931.28 215.921 930.14 220.991 928.8C231.131 926.12 241.311 923.57 251.381 920.66C271.621 915.16 291.671 909.09 311.461 902.52C331.281 896 350.741 888.7 370.191 881.04C389.641 873.4 409.131 865.15 429.211 857.5L436.741 854.62L444.341 851.86C449.381 850 454.521 848.28 459.611 846.49L475.061 841.64C480.221 840.05 485.341 838.34 490.541 836.91L506.141 832.69C511.351 831.32 516.511 829.79 521.761 828.63L537.461 824.93L545.301 823.09L553.191 821.47C595.221 812.67 637.511 806.31 679.851 801.14L687.791 800.14L695.741 799.28L711.631 797.54C716.931 796.91 722.241 796.48 727.541 795.96L743.451 794.4L759.381 793.13C764.701 792.72 770.001 792.16 775.321 791.86L791.271 790.79C796.581 790.36 801.901 790.09 807.221 789.8C830.081 788.51 852.971 787.48 875.881 786.81C886.381 786.5 896.891 786.28 907.411 786.14C916.661 786.02 925.921 785.97 935.191 786C956.561 786.01 977.951 786.34 999.331 787.28C1004.68 787.46 1010.02 787.74 1015.37 788.01C1020.71 788.28 1026.06 788.55 1031.4 788.91C1036.75 789.26 1042.09 789.61 1047.43 790.04L1055.45 790.65L1063.46 791.36C1074.14 792.29 1084.82 793.42 1095.49 794.68C1100.83 795.34 1106.17 795.98 1111.52 796.72C1116.89 797.49 1122.2 798.22 1127.73 799.2C1138.36 801.15 1148.99 802.92 1159.64 805.33L1167.62 807.04L1169.62 807.46L1171.61 807.96L1175.6 808.95L1183.57 810.94C1186.23 811.6 1188.89 812.23 1191.52 813.04C1196.79 814.57 1202.09 816.05 1207.35 817.64L1222.97 822.76C1228.12 824.56 1233.21 826.44 1238.34 828.27C1240.92 829.18 1243.43 830.15 1245.94 831.13L1253.48 834.04C1273.54 841.88 1293.19 849.98 1312.77 858.03L1342.16 870.03L1356.84 876.03L1371.53 881.96C1381.34 885.9 1391.1 889.95 1400.94 893.8L1412.22 898.33L1430.37 905.62C1446.13 911.88 1461.9 918.13 1477.69 924.35C1540.63 949.19 1603.79 973.76 1667.06 998.11L1785.87 1043.79C1817.04 1055.81 1848.26 1067.77 1879.42 1080Z" fill="#FFF0F4"/>
</svg>